{
  "asset": { "version": "2.0", "generator": "limina phase3 fixture" },
  "scene": 0,
  "scenes": [{ "nodes": [0] }],
  "nodes": [{ "mesh": 0, "name": "TexturedTriangle" }],
  "meshes": [{
    "primitives": [{
      "attributes": { "POSITION": 0, "TEXCOORD_0": 1 },
      "indices": 2,
      "material": 0,
      "mode": 4
    }],
    "name": "TexturedTriangleMesh"
  }],
  "materials": [{
    "name": "RedPixelMaterial",
    "pbrMetallicRoughness": {
      "baseColorTexture": { "index": 0 },
      "roughnessFactor": 1.0,
      "metallicFactor": 0.0
    }
  }],
  "textures": [{ "sampler": 0, "source": 0 }],
  "samplers": [{ "magFilter": 9728, "minFilter": 9728, "wrapS": 33071, "wrapT": 33071 }],
  "images": [{
    "mimeType": "image/png",
    "uri": "data:image/png;base64,"
  }],
  "buffers": [{
    "byteLength": 66,
    "uri": "data:application/octet-stream;base64,"
  }],
  "bufferViews": [
    { "buffer": 0, "byteOffset": 0, "byteLength": 36, "target": 34962 },
    { "buffer": 0, "byteOffset": 36, "byteLength": 24, "target": 34962 },
    { "buffer": 0, "byteOffset": 60, "byteLength": 6, "target": 34963 }
  ],
  "accessors": [
    { "bufferView": 0, "componentType": 5126, "count": 3, "type": "VEC3", "min": [0, 0, 0], "max": [1, 1, 0] },
    { "bufferView": 1, "componentType": 5126, "count": 3, "type": "VEC2" },
    { "bufferView": 2, "componentType": 5123, "count": 3, "type": "SCALAR" }
  ]
}
